<svg xmlns:xlink="http://www.w3.org/1999/xlink" xmlns="http://www.w3.org/2000/svg" id="43CkphJsH-" viewBox="0 -5 350 147.89324644397988" height="147.89324644397988" width="350" style="width: 350px; height: 147.893px; position: absolute; top: 50%; left: 50%; z-index: 0; cursor: pointer; overflow: visible; transform: translate(-50%, -50%) scale(0.785143);"><defs id="SvgjsDefs1591"></defs><g id="SvgjsG1592" featurekey="symbolFeature-0" transform="matrix(0.20396270396270397,0,0,0.20396270396270397,122.55827505827506,-10.303030303030303)" fill="#111111"><g xmlns="http://www.w3.org/2000/svg" fill="#111111"><g fill="#111111"><g fill="#111111"><path d="M176,416L176,416c-2.06,0-3.88-1.23-4.64-3.141l-20-50c-0.43-1.069-0.47-2.27-0.13-3.369l60-190     c0.66-2.09,2.58-3.49,4.77-3.49h40c1.6,0,3.12,0.78,4.06,2.08c0.931,1.3,1.19,2.98,0.681,4.5l-65.42,196.28     c-0.69,2.051-2.59,3.421-4.75,3.421c-0.53,0-1.07-0.08-1.58-0.25c-2.61-0.881-4.03-3.711-3.16-6.33L249.06,176h-29.4     l-58.35,184.8l19.33,48.34c0.5,1.24,0.48,2.601-0.04,3.83c-0.53,1.23-1.5,2.18-2.74,2.67C177.26,415.88,176.64,416,176,416z      M181.08,400.74c-0.53,0-1.06-0.08-1.58-0.25c-2.61-0.881-4.03-3.71-3.16-6.33c0.68-2.04,2.59-3.42,4.74-3.42     c0.54,0,1.07,0.09,1.59,0.26c1.26,0.42,2.29,1.31,2.89,2.51c0.6,1.19,0.69,2.55,0.27,3.81     C185.15,399.37,183.24,400.74,181.08,400.74z" fill="#111111"></path></g><g fill="#111111"><path d="M336,416c-0.641,0-1.26-0.12-1.86-0.36c-2.56-1.02-3.81-3.939-2.78-6.5l19.33-48.34L292.33,176h-29.391l63.23,189.7     c0.42,1.27,0.32,2.619-0.271,3.819c-0.6,1.19-1.63,2.08-2.89,2.511c-0.52,0.17-1.05,0.25-1.58,0.25c-2.16,0-4.07-1.37-4.75-3.421     l-65.42-196.28c-0.51-1.52-0.25-3.2,0.69-4.5c0.93-1.3,2.45-2.08,4.05-2.08h40c2.16,0,4.12,1.44,4.77,3.49l60,190     c0.34,1.1,0.3,2.3-0.13,3.369l-19.99,49.98c0,0.01,0,0.01-0.01,0.02C339.88,414.77,338.05,416,336,416z M330.91,400.74     c-2.15,0-4.061-1.37-4.74-3.421c-0.87-2.609,0.55-5.449,3.16-6.319c0.52-0.17,1.05-0.26,1.58-0.26c2.159,0,4.06,1.369,4.75,3.42     c0.42,1.27,0.319,2.62-0.271,3.819c-0.6,1.19-1.63,2.08-2.899,2.5C331.979,400.66,331.45,400.74,330.91,400.74z" fill="#111111"></path></g><g fill="#111111"><g fill="#111111"><path d="M276,81.36c-0.88,0-1.75-0.23-2.5-0.67C268.189,77.62,262.14,76,256,76c-6.14,0-12.19,1.62-17.5,4.69      c-1.51,0.88-3.48,0.88-5,0.01c-1.54-0.9-2.5-2.56-2.5-4.34V31c0-1.32,0.53-2.6,1.46-3.54c0.93-0.93,2.22-1.46,3.54-1.46h40      c1.319,0,2.609,0.53,3.54,1.46c0.93,0.93,1.46,2.22,1.46,3.54v45.36c0,1.79-0.96,3.45-2.5,4.34      C277.74,81.13,276.87,81.36,276,81.36z M241,36v32.57c4.82-1.71,9.86-2.57,14.99-2.57h0.02c5.13,0,10.17,0.86,14.99,2.57V36H241      z" fill="#111111"></path></g><g fill="#111111"><path d="M282.439,146H229.56c-1.22,0-2.4-0.44-3.31-1.25C216.56,136.21,211,123.91,211,111c0-8.04,2.15-15.92,6.21-22.81      c3.94-6.69,9.57-12.27,16.29-16.15C240.32,68.09,248.1,66,256,66c7.899,0,15.68,2.09,22.5,6.04l0,0      c6.71,3.88,12.35,9.46,16.29,16.15c4.06,6.89,6.21,14.77,6.21,22.81c0,12.91-5.561,25.21-15.25,33.75      C284.84,145.56,283.66,146,282.439,146z M231.52,136h48.959c6.78-6.64,10.521-15.52,10.521-25c0-12.44-6.71-24.05-17.51-30.31      l0,0C268.189,77.62,262.14,76,256,76c-6.14,0-12.19,1.62-17.5,4.69C227.71,86.95,221,98.56,221,111      C221,120.48,224.74,129.36,231.52,136z" fill="#111111"></path></g></g><g fill="#111111"><path d="M286,176h-60c-1.31,0-2.6-0.53-3.54-1.47c-0.93-0.93-1.46-2.21-1.46-3.53v-30c0-1.32,0.53-2.61,1.46-3.53     c0.94-0.94,2.23-1.47,3.54-1.47h60c1.319,0,2.6,0.53,3.54,1.47c0.93,0.92,1.46,2.21,1.46,3.53v30c0,1.33-0.521,2.59-1.46,3.53     C288.59,175.48,287.33,176,286,176z M231,166h50v-20h-50V166z" fill="#111111"></path></g><circle cx="256" cy="111" r="10" fill="#111111"></circle><g fill="#111111"><path d="M306,346H206c-2.76,0-5-2.24-5-5s2.24-5,5-5h100c2.76,0,5,2.24,5,5S308.76,346,306,346z" fill="#111111"></path></g><g fill="#111111"><path d="M256,486c-2.76,0-5-2.24-5-5V321c0-2.76,2.24-5,5-5c2.76,0,5,2.24,5,5v160C261,483.76,258.76,486,256,486z" fill="#111111"></path></g><g fill="#111111"><path d="M136,486H96c-1.32,0-2.6-0.53-3.54-1.46C91.53,483.6,91,482.319,91,481v-40c0-1.32,0.53-2.61,1.46-3.54     C93.4,436.53,94.68,436,96,436h40c1.32,0,2.6,0.53,3.53,1.46c0.94,0.93,1.47,2.22,1.47,3.54v40c0,1.34-0.52,2.59-1.47,3.54     C138.59,485.479,137.33,486,136,486z M101,476h30v-30h-30V476z" fill="#111111"></path></g><g fill="#111111"><path d="M406,486h-40c-1.311,0-2.601-0.53-3.53-1.46c-0.939-0.931-1.47-2.221-1.47-3.54v-40c0-1.32,0.53-2.61,1.46-3.54     S364.68,436,366,436h40c1.319,0,2.609,0.53,3.54,1.47c0.93,0.93,1.46,2.22,1.46,3.53v40c0,1.33-0.521,2.59-1.46,3.54     C408.59,485.479,407.33,486,406,486z M371,476h30v-30h-30V476z" fill="#111111"></path></g><g fill="#111111"><path d="M356,466H136c-2.76,0-5-2.24-5-5s2.24-5,5-5h220c2.76,0,5,2.24,5,5S358.76,466,356,466z" fill="#111111"></path></g><rect x="286" y="391" width="20" height="20" fill="#111111"></rect><rect x="206" y="391" width="20" height="20" fill="#111111"></rect><rect x="286" y="421" width="20" height="20" fill="#111111"></rect><rect x="206" y="421" width="20" height="20" fill="#111111"></rect><g fill="#111111"><path d="M446,226H346c-2.76,0-5-2.24-5-5c0-2.76,2.24-5,5-5h100c2.76,0,5,2.24,5,5C451,223.76,448.76,226,446,226z" fill="#111111"></path></g><g fill="#111111"><path d="M166,226H66c-2.76,0-5-2.24-5-5c0-2.76,2.24-5,5-5h100c2.76,0,5,2.24,5,5C171,223.76,168.76,226,166,226z" fill="#111111"></path></g></g></g></g><g id="SvgjsG1593" featurekey="nameFeature-0" transform="matrix(0.8744928059150264,0,0,0.8744928059150264,-1.049391200301766,107.91353003747216)" fill="#111111"><path d="M1.2 40 l0 -4.48 l0.84 -0.56 l0 -17.92 l-0.84 -0.56 l0 -4.48 l6.72 0 l0 4.48 l-0.84 0.56 l0 17.92 l0.84 0.56 l0 4.48 l-6.72 0 z M12.632000000000001 40 l0 -4.48 l0.84 -0.56 l0 -17.92 l-0.84 -0.56 l0 -4.48 l6.2 0 l5.84 14.96 l0 -9.92 l-0.84 -0.56 l0 -4.48 l6.72 0 l0 4.48 l-0.84 0.56 l0 22.96 l-5.36 0 l-5.84 -14.96 l0 9.92 l0.84 0.56 l0 4.48 l-6.72 0 z M38.98400000000001 40 l-3.72 -3.72 l0 -20.56 l3.72 -3.72 l8.8 0 l3.72 3.72 l0 5.24 l-5.04 0 l0 -3.16 l-0.76 -0.76 l-4.64 0 l-0.76 0.76 l0 16.4 l0.76 0.76 l4.64 0 l0.76 -0.76 l0 -5.68 l-1.68 0 l-0.84 -0.56 l0 -4.48 l7.56 0 l0 12.8 l-3.72 3.72 l-8.8 0 z M56.21600000000001 40 l0 -4.48 l0.84 -0.56 l0 -17.92 l-0.84 -0.56 l0 -4.48 l14.56 0 l0 5.88 l-4.48 0 l-0.56 -0.84 l-3.64 0 l0 6.44 l6.44 0 l0 5.04 l-6.44 0 l0 6.44 l3.64 0 l0.56 -0.84 l4.48 0 l0 5.88 l-14.56 0 z M75.48800000000001 40 l0 -4.48 l0.84 -0.56 l0 -17.92 l-0.84 -0.56 l0 -4.48 l6.2 0 l5.84 14.96 l0 -9.92 l-0.84 -0.56 l0 -4.48 l6.72 0 l0 4.48 l-0.84 0.56 l0 22.96 l-5.36 0 l-5.84 -14.96 l0 9.92 l0.84 0.56 l0 4.48 l-6.72 0 z M98.12000000000002 40 l0 -4.48 l0.84 -0.56 l0 -17.92 l-0.84 -0.56 l0 -4.48 l6.72 0 l0 4.48 l-0.84 0.56 l0 17.92 l0.84 0.56 l0 4.48 l-6.72 0 z M109.55200000000002 40 l0 -4.48 l0.84 -0.56 l0 -17.92 l-0.84 -0.56 l0 -4.48 l14.56 0 l0 5.88 l-4.48 0 l-0.56 -0.84 l-3.64 0 l0 6.44 l6.44 0 l0 5.04 l-6.44 0 l0 6.44 l3.64 0 l0.56 -0.84 l4.48 0 l0 5.88 l-14.56 0 z M139.02400000000003 40 l0 -4.48 l0.72 -0.48 l-1.4 -5.4 l-3.64 0 l0 5.32 l0.84 0.56 l0 4.48 l-6.72 0 l0 -4.48 l0.84 -0.56 l0 -17.92 l-0.84 -0.56 l0 -4.48 l12.8 0 l3.72 3.72 l0 10.2 l-2.16 2.2 l1.72 6.68 l1 0.72 l0 4.48 l-6.88 0 z M134.70400000000004 24.6 l4.84 0 l0.76 -0.76 l0 -6.04 l-0.76 -0.76 l-4.84 0 l0 7.56 z M150.25600000000003 40 l0 -4.48 l0.84 -0.56 l0 -17.92 l-0.84 -0.56 l0 -4.48 l6.72 0 l0 4.48 l-0.84 0.56 l0 17.92 l0.84 0.56 l0 4.48 l-6.72 0 z M150.93600000000004 10.879999999999999 l1.44 -3.92 l3.92 0 l-2.52 3.92 l-2.84 0 z M160.88800000000006 40 l0 -4.48 l0.84 -0.56 l3.64 -17.92 l-0.84 -0.56 l0 -4.48 l10.64 0 l0 4.48 l-0.84 0.56 l3.64 17.92 l0.84 0.56 l0 4.48 l-4.96 0 l-1.24 -6.16 l-5.52 0 l-1.24 6.16 l-4.96 0 z M168.12800000000004 28.8 l3.44 0 l-1.72 -8.56 z M192.23200000000006 40 l0 -4.48 l0.84 -0.56 l0 -17.92 l-0.84 -0.56 l0 -4.48 l13.36 0 l3.72 3.72 l0 20.56 l-3.72 3.72 l-13.36 0 z M198.11200000000008 34.96 l5.4 0 l0.76 -0.76 l0 -16.4 l-0.76 -0.76 l-5.4 0 l0 17.92 z M214.02400000000006 40 l0 -4.48 l0.84 -0.56 l0 -17.92 l-0.84 -0.56 l0 -4.48 l14.56 0 l0 5.88 l-4.48 0 l-0.56 -0.84 l-3.64 0 l0 6.44 l6.44 0 l0 5.04 l-6.44 0 l0 6.44 l3.64 0 l0.56 -0.84 l4.48 0 l0 5.88 l-14.56 0 z M233.29600000000005 40 l0 -4.48 l0.84 -0.56 l0 -17.92 l-0.84 -0.56 l0 -4.48 l6.72 0 l0 4.48 l-0.84 0.56 l0 17.92 l2.8 0 l0.56 -0.84 l4.48 0 l0 5.88 l-13.72 0 z M264.9600000000001 40 l-3.72 -3.72 l0 -5.24 l5.04 0 l0 3.16 l0.76 0.76 l4.08 0 l0.76 -0.76 l0 -4.92 l-0.76 -0.76 l-6.16 0 l-3.72 -3.72 l0 -9.08 l3.72 -3.72 l8.24 0 l3.72 3.72 l0 5.24 l-5.04 0 l0 -3.16 l-0.76 -0.76 l-4.08 0 l-0.76 0.76 l0 4.92 l0.76 0.76 l6.16 0 l3.72 3.72 l0 9.08 l-3.72 3.72 l-8.24 0 z M286.19200000000006 40 l-3.72 -3.72 l0 -19.24 l-0.84 -0.56 l0 -4.48 l6.72 0 l0 4.48 l-0.84 0.56 l0 17.16 l0.76 0.76 l4.64 0 l0.76 -0.76 l0 -17.16 l-0.84 -0.56 l0 -4.48 l6.72 0 l0 4.48 l-0.84 0.56 l0 19.24 l-3.72 3.72 l-8.8 0 z M314.46400000000006 40 l0 -4.48 l0.72 -0.48 l-1.4 -5.4 l-3.64 0 l0 5.32 l0.84 0.56 l0 4.48 l-6.72 0 l0 -4.48 l0.84 -0.56 l0 -17.92 l-0.84 -0.56 l0 -4.48 l12.8 0 l3.72 3.72 l0 10.2 l-2.16 2.2 l1.72 6.68 l1 0.72 l0 4.48 l-6.88 0 z M310.14400000000006 24.6 l4.84 0 l0.76 -0.76 l0 -6.04 l-0.76 -0.76 l-4.84 0 l0 7.56 z M325.6960000000001 40 l0 -4.48 l0.84 -0.56 l0 -17.92 l-0.84 -0.56 l0 -4.48 l14.56 0 l0 5.88 l-4.48 0 l-0.56 -0.84 l-3.64 0 l0 6.44 l6.44 0 l0 5.04 l-6.44 0 l0 6.44 l3.64 0 l0.56 -0.84 l4.48 0 l0 5.88 l-14.56 0 z M348.6880000000001 40 l-3.72 -3.72 l0 -5.24 l5.04 0 l0 3.16 l0.76 0.76 l4.08 0 l0.76 -0.76 l0 -4.92 l-0.76 -0.76 l-6.16 0 l-3.72 -3.72 l0 -9.08 l3.72 -3.72 l8.24 0 l3.72 3.72 l0 5.24 l-5.04 0 l0 -3.16 l-0.76 -0.76 l-4.08 0 l-0.76 0.76 l0 4.92 l0.76 0.76 l6.16 0 l3.72 3.72 l0 9.08 l-3.72 3.72 l-8.24 0 z M370.4000000000001 40 l0 -4.48 l0.84 -0.56 l0 -17.92 l-0.84 0 l-0.56 0.84 l-4.48 0 l0 -5.88 l16.8 0 l0 5.88 l-4.48 0 l-0.56 -0.84 l-0.84 0 l0 17.92 l0.84 0.56 l0 4.48 l-6.72 0 z M386.87200000000007 40 l0 -4.48 l0.84 -0.56 l0 -17.92 l-0.84 -0.56 l0 -4.48 l14.56 0 l0 5.88 l-4.48 0 l-0.56 -0.84 l-3.64 0 l0 6.44 l6.44 0 l0 5.04 l-6.44 0 l0 6.44 l3.64 0 l0.56 -0.84 l4.48 0 l0 5.88 l-14.56 0 z" fill="#020858"></path></g></svg>